<svg width="16" height="24" viewBox="0 0 16 24" fill="none" xmlns="http://www.w3.org/2000/svg">
<path d="M8.32614 0.894429C10.0857 0.894429 11.8472 0.849632 13.6047 0.907665C15.5009 0.96977 16.6421 3.15159 15.6107 4.72253C15.212 5.32933 14.7004 5.87097 14.1981 6.40344C12.4945 8.02428 10.6439 9.54737 8.5343 10.8506C7.01609 11.7882 5.4057 12.7626 3.76011 13.4498C2.71724 13.8856 1.27566 13.7573 0.423347 12.6099C0.196547 12.3044 0.0515605 11.944 0.020492 11.5673C0.00702896 11.4054 0.00910019 11.2782 0.00910019 11.1906C0.0132427 8.6046 -0.0230039 6.42889 0.0308481 3.8439C0.0629523 2.27092 1.52214 0.923955 2.98443 0.900538C4.76465 0.873049 6.54592 0.894429 8.32718 0.894429H8.32614Z" fill="white"/>
<path d="M7.67337 23.1067C5.91386 23.1067 4.15228 23.1515 2.39483 23.0934C0.498618 23.0313 -0.642632 20.8495 0.388843 19.2786C0.787555 18.6718 1.29915 18.1301 1.80142 17.5976C3.50501 15.9768 5.35566 14.4537 7.46521 13.1505C8.98343 12.2128 10.5938 11.2385 12.2394 10.5513C13.2823 10.1155 14.7239 10.2438 15.5762 11.3912C15.803 11.6967 15.948 12.0571 15.979 12.4338C15.9925 12.5957 15.9904 12.7229 15.9904 12.8105C15.9863 15.3965 16.0225 17.5722 15.9687 20.1572C15.9366 21.7302 14.4763 23.0771 13.0151 23.0995C11.2349 23.127 9.4536 23.1056 7.67234 23.1056L7.67337 23.1067Z" fill="white"/>
</svg>
